# xmcd CD database file
#
# Track frame offsets:
#	150
#	15676
#	35921
#	48900
#	62783
#	79947
#	99677
#	114669
#	135751
#	152038
#	165026
#	180687
#	194477
#	206555
#
# Disc length: 2922 seconds
#
# Revision: 0
# Processed by: cddbd v1.5.1PL0 Copyright (c) Steve Scherf et al.
# Submitted via: CDex 1.51
#
DISCID=b70b680e
DTITLE=Various Artist - Austin - Beyond 6th Street
DYEAR=2004
DGENRE=Country
TTITLE0=Asleep At The Wheel  - Boogie Back to Texas
TTITLE1=W.C. Clark - Let It Rain
TTITLE2=Django's Moustache - Django's Moustache
TTITLE3=Elizabeth McQueen and The Firebirds - Heaven Sent
TTITLE4=Grupo Fantasma - Pelegrosa
TTITLE5=South Austin Jug Band - Hill Country Nights
TTITLE6=Ruthie Foster - Small Town Blues
TTITLE7=Kimmie Rhodes and Willie Nelson - I Just Drove By
TTITLE8=The Greecards - Life's A Freeway
TTITLE9=Mary Welch - La Morenita Bailo
TTITLE10=Dany Britt - Every Time An Angel Flies
TTITLE11=Floyd Domino - Floyd's Eyes Of Texas Boogie
TTITLE12=Bradley Jaye Williams - Don't Talk To Me About Tomorrow
TTITLE13=Brandon Jennings - Austin
EXTD=YEAR: 2004
EXTT0=
EXTT1=
EXTT2=
EXTT3=
EXTT4=
EXTT5=
EXTT6=
EXTT7=
EXTT8=
EXTT9=
EXTT10=
EXTT11=
EXTT12=
EXTT13=
PLAYORDER=
